<?xml version="1.0" encoding="utf-8"?>
<!-- Generator: Adobe Illustrator 24.0.2, SVG Export Plug-In . SVG Version: 6.00 Build 0)  -->
<svg version="1.1" id="Layer_1" xmlns="http://www.w3.org/2000/svg" xmlns:xlink="http://www.w3.org/1999/xlink" x="0px" y="0px"
	 viewBox="0 0 150 178.41" style="enable-background:new 0 0 150 178.41;" xml:space="preserve">
<style type="text/css">
	.st0{fill:#F2F2F2;}
	.st1{fill:#B2B2B2;}
</style>
<rect class="st0" width="150" height="178.41"/>
<g>
	<path class="st1" d="M145.38,158.19v19.91c-0.67,0.19-1.54,0.26-2.58,0.26c-41.06-0.12-82.12-0.08-123.18-0.07
		c-5,0-10,0.08-14.99,0.12v-18.37c2.53-4.6,7.51-7.57,13.25-10.16c7.91-3.56,16.06-6.46,24.05-9.81c3.76-1.58,7.31-3.57,10.49-6.15
		c4.68-3.8,6.71-8.78,6.89-14.69c0.06-2.4-0.29-4.6-2-6.37c-3.57-3.7-5.47-8.21-6.35-13.19c-0.24-1.35-0.82-2.32-1.95-3.11
		c-4.53-3.13-7.02-8.93-4.46-13.45c2.49-4.4,1.43-8.43,0.63-12.47c-2.98-15.07,7.41-28.62,23.13-29.73
		c5.83-0.42,12.04-0.79,18.13,0.44c11.8,2.37,21.13,15.4,19.04,27.44c-0.39,2.25-0.66,4.52-0.94,6.79
		c-0.31,2.49-0.29,4.73,1.15,7.16c2.41,4.06,0.59,10.72-3.29,13.23c-1.89,1.22-2.84,2.79-3.23,4.89c-0.7,3.84-2.35,7.21-4.71,10.31
		c-4.57,6.01-3.96,14.87,1.18,20.43c5.49,5.96,12.86,8.52,20.11,11.32c8.9,3.43,17.88,6.71,25.84,12.13
		C142.96,155.99,144.31,156.97,145.38,158.19z"/>
</g>
</svg>
